<svg width="60" height="56" viewBox="0 0 60 56" fill="none" xmlns="http://www.w3.org/2000/svg">
<g clip-path="url(#clip0_588_239)">
<path d="M30 15C32.1217 15 34.1566 15.8429 35.6569 17.3432C37.1571 18.8435 38 20.8783 38 23C38 25.1218 37.1571 27.1566 35.6569 28.6569C34.1566 30.1572 32.1217 31 30 31C27.8783 31 25.8434 30.1572 24.3431 28.6569C22.8429 27.1566 22 25.1218 22 23C22 20.8783 22.8429 18.8435 24.3431 17.3432C25.8434 15.8429 27.8783 15 30 15ZM30 18.5L28.677 21.18L25.72 21.61L27.86 23.695L27.355 26.641L30 25.25L32.645 26.64L32.14 23.695L34.28 21.609L31.323 21.179L30 18.5ZM31 9.99902L36 10V13L34.637 14.138C33.5059 13.5446 32.2711 13.1749 31 13.049V10V9.99902ZM29 9.99902V13.049C27.7293 13.1747 26.4948 13.5441 25.364 14.137L24 13V10L29 9.99902Z" fill="#A4B3C7"/>
</g>
<path d="M25.4766 36.5625V43.3359H20.6602V36.5625H25.4766ZM21.5625 42.5859H24.5742V37.3008H21.5625V42.5859ZM27.7148 45.9727V35.5312H28.6406V45.9727H27.7148ZM33.9844 37.4648C33.9844 38.9941 35.0332 40.4355 36.5391 41.0273L36.0234 41.7422C34.8809 41.2676 33.9844 40.3184 33.5449 39.1348C33.0996 40.4121 32.1621 41.4258 30.9492 41.9297L30.4453 41.1914C31.998 40.5938 33.0762 39.0996 33.082 37.4648V36.1289H33.9844V37.4648ZM32.3203 45.7266V42.5156H33.2461V44.9531H39.293V45.7266H32.3203ZM35.9883 39.9844V39.2344H38.1328V37.8516H35.9883V37.0898H38.1328V35.543H39.0586V43.3242H38.1328V39.9844H35.9883Z" fill="#A4B3C7"/>
<defs>
<clipPath id="clip0_588_239">
<rect width="24" height="24" fill="white" transform="translate(18 8)"/>
</clipPath>
</defs>
</svg>
