<svg width="60" height="56" viewBox="0 0 60 56" fill="none" xmlns="http://www.w3.org/2000/svg">
<path d="M37 19H23C21.8954 19 21 19.8954 21 21V27C21 28.1046 21.8954 29 23 29H37C38.1046 29 39 28.1046 39 27V21C39 19.8954 38.1046 19 37 19Z" stroke="#A4B3C7" stroke-width="2" stroke-linecap="round" stroke-linejoin="round"/>
<path d="M30 15C31.1046 15 32 14.1046 32 13C32 11.8954 31.1046 11 30 11C28.8954 11 28 11.8954 28 13C28 14.1046 28.8954 15 30 15Z" stroke="#A4B3C7" stroke-width="2" stroke-linecap="round" stroke-linejoin="round"/>
<path d="M30 15V19" stroke="#A4B3C7" stroke-width="2" stroke-linecap="round" stroke-linejoin="round"/>
<circle cx="26" cy="24" r="1" fill="#A4B3C7"/>
<circle cx="34" cy="24" r="1" fill="#A4B3C7"/>
<path d="M13.9141 40.8281V41.5781H4.42188V40.8281H8.72266V39.3281H9.47266V35.9648H13V36.7148H10.3984V38.6367H13.0703V39.3867H9.64844V40.8281H13.9141ZM5.3125 39.3867V35.9648H8.85156V36.7148H6.23828V38.6367C7.12891 38.6309 8.01367 38.5664 9.00391 38.3555L9.10938 39.0938C7.92578 39.3457 6.94141 39.3809 5.88672 39.3867H5.3125ZM5.45312 43.4648V42.7148H12.707V46.0312H11.793V43.4648H5.45312ZM24.2852 40.8281V41.5781H14.793V40.8281H19.0938V39.3281H19.8438V35.9648H23.3711V36.7148H20.7695V38.6367H23.4414V39.3867H20.0195V40.8281H24.2852ZM15.6836 39.3867V35.9648H19.2227V36.7148H16.6094V38.6367C17.5 38.6309 18.3848 38.5664 19.375 38.3555L19.4805 39.0938C18.2969 39.3457 17.3125 39.3809 16.2578 39.3867H15.6836ZM15.8242 43.4648V42.7148H23.0781V46.0312H22.1641V43.4648H15.8242ZM34.7031 43.8281V44.5898H25.1641V43.8281H29.4297V41.2734H30.332V43.8281H34.7031ZM25.5391 40.6289C27.3613 40.3184 29.3887 38.7949 29.3945 37.043V36.2461H30.3555V37.043C30.3613 38.7832 32.418 40.3184 34.2344 40.6289L33.8242 41.3906C32.2363 41.0625 30.5605 39.9902 29.8867 38.4902C29.2012 39.9844 27.543 41.0625 25.9492 41.3906L25.5391 40.6289ZM44.125 35.5312V45.9727H43.1992V35.5312H44.125ZM36.1445 43.4531V36.4219H37.0586V39.1758H40.1641V36.4219H41.0664V43.4531H36.1445ZM37.0586 42.6797H40.1641V39.9141H37.0586V42.6797ZM48.0859 35.8125V36.9844H53.2422V35.8125H54.1562V39.6328H51.1094V40.8281H55.3984V41.5664H45.9062V40.8281H50.207V39.6328H47.1719V35.8125H48.0859ZM46.6445 45.1875C48.5195 44.9238 50.1836 43.9043 50.1836 42.5508V42.2578H51.1094V42.5508C51.1094 43.9043 52.7676 44.9238 54.6719 45.1875L54.3203 45.9023C52.7207 45.6445 51.2734 44.918 50.6523 43.7988C50.0254 44.918 48.5781 45.6445 46.9961 45.9023L46.6445 45.1875ZM48.0859 38.9062H53.2422V37.7109H48.0859V38.9062Z" fill="#A4B3C7"/>
</svg>
