<svg width="60" height="56" viewBox="0 0 60 56" fill="none" xmlns="http://www.w3.org/2000/svg">
<path d="M38.0402 14.8201L32.2802 10.7901C30.7102 9.69006 28.3002 9.75006 26.7902 10.9201L21.7802 14.8301C20.7802 15.6101 19.9902 17.2101 19.9902 18.4701V25.3701C19.9902 27.9201 22.0602 30.0001 24.6102 30.0001H35.3902C37.9402 30.0001 40.0102 27.9301 40.0102 25.3801V18.6001C40.0102 17.2501 39.1402 15.5901 38.0402 14.8201ZM30.7502 26.0001C30.7502 26.4101 30.4102 26.7501 30.0002 26.7501C29.5902 26.7501 29.2502 26.4101 29.2502 26.0001V23.0001C29.2502 22.5901 29.5902 22.2501 30.0002 22.2501C30.4102 22.2501 30.7502 22.5901 30.7502 23.0001V26.0001Z" fill="#A4B3C7"/>
<path d="M33.2539 42.832V45.8086H26.082V42.832H33.2539ZM24.9219 42.0352V41.2969H29.2109V40.4941C27.3359 40.4238 26.2812 39.9316 26.2812 39.0234C26.2812 38.0566 27.5059 37.5586 29.668 37.5469C31.8242 37.5586 33.043 38.0566 33.043 39.0234C33.043 39.9316 31.9941 40.4238 30.125 40.4941V41.2969H34.4141V42.0352H24.9219ZM25.4141 37.125V36.4102H29.2109V35.3789H30.125V36.4102H33.8633V37.125H25.4141ZM26.9961 45.0938H32.3516V43.5469H26.9961V45.0938ZM27.2656 39.0234C27.2598 39.5566 28.1387 39.8555 29.668 39.8555C31.1973 39.8555 32.0645 39.5566 32.0703 39.0234C32.0645 38.4844 31.1973 38.2031 29.668 38.1914C28.1387 38.2031 27.2598 38.4844 27.2656 39.0234Z" fill="#A4B3C7"/>
</svg>
