<svg width="60" height="56" viewBox="0 0 60 56" fill="none" xmlns="http://www.w3.org/2000/svg">
<g clip-path="url(#clip0_916_103)">
<path d="M30 15C32.1217 15 34.1566 15.8429 35.6569 17.3432C37.1571 18.8435 38 20.8783 38 23C38 25.1218 37.1571 27.1566 35.6569 28.6569C34.1566 30.1572 32.1217 31 30 31C27.8783 31 25.8434 30.1572 24.3431 28.6569C22.8429 27.1566 22 25.1218 22 23C22 20.8783 22.8429 18.8435 24.3431 17.3432C25.8434 15.8429 27.8783 15 30 15ZM30 18.5L28.677 21.18L25.72 21.61L27.86 23.695L27.355 26.641L30 25.25L32.645 26.64L32.14 23.695L34.28 21.609L31.323 21.179L30 18.5ZM31 9.99902L36 10V13L34.637 14.138C33.5059 13.5446 32.2711 13.1749 31 13.049V10V9.99902ZM29 9.99902V13.049C27.7293 13.1747 26.4948 13.5441 25.364 14.137L24 13V10L29 9.99902Z" fill="#A4B3C7"/>
</g>
<path d="M17.9473 37.5469C17.9473 37.8945 18.0371 38.2383 18.2168 38.5781C18.4004 38.918 18.6562 39.2246 18.9844 39.498C19.3164 39.7676 19.6973 39.9766 20.127 40.125L19.7168 40.8047C19.2051 40.6289 18.7617 40.3691 18.3867 40.0254C18.0117 39.6816 17.7266 39.2871 17.5312 38.8418C17.3398 39.3262 17.0566 39.7578 16.6816 40.1367C16.3066 40.5156 15.8652 40.8047 15.3574 41.0039L14.9121 40.3008C15.3418 40.1367 15.7188 39.9082 16.043 39.6152C16.3711 39.3223 16.625 38.9961 16.8047 38.6367C16.9844 38.2773 17.0762 37.9141 17.0801 37.5469V37.4531H15.1582V36.7266H17.0801V35.5898H17.9473V36.7266H19.834V37.4531H17.9473V37.5469ZM23.7129 41.1094H22.834V38.6719H21.4746V41.0273H20.584V35.7422H21.4746V37.9102H22.834V35.543H23.7129V41.1094ZM23.7129 43.9805H17.7363V45.0938H24.1348V45.8086H16.8223V43.2891H22.8105V42.293H16.7988V41.5781H23.7129V43.9805ZM33.8262 43.207H32.9238V35.543H33.8262V43.207ZM34.1309 45.7266H26.9941V42.6094H27.9199V44.9531H34.1309V45.7266ZM30.5215 39.293H26.6777V40.957C27.7207 40.957 28.6113 40.9336 29.3496 40.8867C30.0918 40.8359 30.8535 40.7422 31.6348 40.6055L31.7285 41.3672C30.9277 41.5039 30.1504 41.5977 29.3965 41.6484C28.6426 41.6953 27.7207 41.7227 26.6309 41.7305H25.7871V38.5664H29.6074V37.0312H25.7637V36.2812H30.5215V39.293ZM39.334 38.7305C39.334 39.3047 39.4609 39.877 39.7148 40.4473C39.9688 41.0137 40.3105 41.5195 40.7402 41.9648C41.1738 42.4062 41.6465 42.7383 42.1582 42.9609L41.6426 43.6875C41.0293 43.4062 40.4766 42.9824 39.9844 42.416C39.4922 41.8457 39.125 41.2031 38.8828 40.4883C38.6406 41.2539 38.2734 41.9473 37.7812 42.5684C37.293 43.1855 36.752 43.6445 36.1582 43.9453L35.6074 43.2188C36.0996 42.9805 36.5586 42.6211 36.9844 42.1406C37.4141 41.6602 37.7578 41.1191 38.0156 40.5176C38.2734 39.9121 38.4043 39.3164 38.4082 38.7305V37.3711H35.9473V36.6094H41.8184V37.3711H39.334V38.7305ZM44.1973 45.9492H43.2715V35.5312H44.1973V45.9492Z" fill="#A4B3C7"/>
<defs>
<clipPath id="clip0_916_103">
<rect width="24" height="24" fill="white" transform="translate(18 8)"/>
</clipPath>
</defs>
</svg>
