<svg width="61" height="56" viewBox="0 0 61 56" fill="none" xmlns="http://www.w3.org/2000/svg">
<path d="M23.8909 10.2273C23.4402 10.3403 23.1499 10.5002 22.9242 10.7124C22.6061 11.0116 22.3987 11.4317 22.2853 12.225C22.1686 13.0416 22.1667 14.1238 22.1667 15.6757V24.2442C22.5716 23.9781 23.0279 23.7756 23.5199 23.6517C23.6386 23.6217 23.7616 23.5983 23.8909 23.5799V10.2273Z" fill="#A4B3C7"/>
<path d="M25.615 23.5135C25.6272 23.5135 25.6394 23.5135 25.6518 23.5135H38.8334V15.6757C38.8334 14.1239 38.8315 13.0416 38.7148 12.225C38.6014 11.4317 38.394 11.0117 38.0759 10.7124C37.7578 10.4132 37.3112 10.2182 36.4678 10.1115C35.5995 10.0017 34.4488 10 32.7989 10H28.2012C27.1577 10 26.3139 10.0007 25.615 10.029V23.5135Z" fill="#A4B3C7"/>
<path d="M25.7849 25.1351C24.6605 25.1351 24.2674 25.1421 23.9661 25.218C23.1393 25.4264 22.4802 26.0044 22.1975 26.7558C22.215 27.1382 22.2424 27.4746 22.2853 27.775C22.3987 28.5683 22.6061 28.9884 22.9242 29.2876C23.2424 29.5868 23.689 29.7818 24.5324 29.8885C25.4006 29.9983 26.5513 30 28.2012 30H32.7989C34.4488 30 35.5996 29.9983 36.4678 29.8885C37.3112 29.7818 37.7578 29.5868 38.0759 29.2876C38.3941 28.9884 38.6014 28.5683 38.7149 27.775C38.8101 27.1088 38.8288 26.2657 38.8325 25.1351H25.7849Z" fill="#A4B3C7"/>
<path d="M22.9844 35.5312V39.7734H24.6719V40.5469H22.9844V45.9492H22.0703V35.5312H22.9844ZM14.9922 43.2422C17.6816 41.9062 19.1465 39.8965 19.3574 37.4297H15.4727V36.6562H20.2891C20.2832 39.6035 18.9004 42.293 15.5078 43.9688L14.9922 43.2422ZM34.2109 35.5312V45.9492H33.332V35.5312H34.2109ZM25.2812 43.0312C27.5488 41.6895 28.6855 39.8086 28.8672 37.6289H25.75V36.8672H29.7812C29.7812 37.4004 29.7344 37.9277 29.6406 38.4375H31.2227V35.8125H32.1016V45.4219H31.2227V41.8125H29.2891V41.0508H31.2227V39.1992H29.459C28.9551 40.9629 27.8125 42.5215 25.8438 43.6992L25.2812 43.0312ZM45.1914 41.7188V42.4688H40.8438V45.9492H39.9414V42.4688H35.6523V41.7188H45.1914ZM36.8711 40.4531V35.9648H37.7852V37.4062H43.0352V35.9648H43.9609V40.4531H36.8711ZM37.7852 39.7031H43.0352V38.1562H37.7852V39.7031Z" fill="#A4B3C7"/>
</svg>
