<svg width="60" height="56" viewBox="0 0 60 56" fill="none" xmlns="http://www.w3.org/2000/svg">
<path d="M30 19.7959C32.7189 19.7959 34.9231 17.603 34.9231 14.898C34.9231 12.1929 32.7189 10 30 10C27.281 10 25.0769 12.1929 25.0769 14.898C25.0769 17.603 27.281 19.7959 30 19.7959Z" fill="#A4B3C7"/>
<path d="M32.564 21.8369H27.4358C24.4614 21.8369 21.5 24.2859 21.5 27.245C21.5 27.9593 22.3846 28.6939 23 29C23.9231 29.5102 25.8973 30.0001 29.9999 30.0001C34.1025 30.0001 36.0769 29.5102 37 29C37.5128 28.6939 38.5 27.9593 38.5 27.245C38.5 24.1838 35.5384 21.8369 32.564 21.8369Z" fill="#A4B3C7"/>
<path d="M23.9609 43.8281V44.6133H14.4219V43.8281H23.9609ZM15.2656 37.3477V36.5859H23.0469V37.3477H21.3945V40.9922H23.0234V41.7422H15.2891V40.9922H16.918V37.3477H15.2656ZM17.832 40.9922H20.4922V37.3477H17.832V40.9922ZM34.332 43.8867V44.6602H24.793V43.8867H29.082V41.918H25.9883V38.707H32.2227V37.0664H25.9648V36.3047H33.125V39.457H26.9023V41.1562H33.3711V41.918H29.9844V43.8867H34.332ZM43.7773 35.5312V40.9453H42.8516V35.5312H43.7773ZM35.3398 39.8086C35.7559 39.8086 36.207 39.8027 36.6758 39.7969V36.9844H35.6328V36.2461H41.2695V36.9844H40.2148V39.6562C40.7539 39.6152 41.2812 39.5625 41.7852 39.5039L41.832 40.1836C39.7461 40.4941 37.2969 40.5762 35.457 40.5703L35.3398 39.8086ZM36.957 42.1875V41.4492H43.7773V43.9336H37.8945V45.082H44.1758V45.832H36.9922V43.2422H42.8633V42.1875H36.957ZM37.5664 39.7793C38.1406 39.7617 38.7324 39.7441 39.3242 39.709V36.9844H37.5664V39.7793Z" fill="#A4B3C7"/>
</svg>
